<svg width="447" height="228" viewBox="0 0 447 228" fill="none" xmlns="http://www.w3.org/2000/svg">
<path d="M434.355 119.453L371.865 95.1074V78.3203L446.924 111.543V121.826L434.355 119.453ZM371.865 140.898L434.531 116.025L446.924 114.18V124.375L371.865 157.686V140.898Z" fill="#FEC106"/>
<path d="M225.335 0C167.374 4.13407e-06 170.993 25.1352 170.993 25.1352L171.058 51.175H226.368V58.9934H149.089C149.089 58.9934 112 54.7872 112 113.27C112 171.753 144.372 169.679 144.372 169.679H163.692V142.54C163.692 142.54 162.651 110.168 195.547 110.168H250.405C250.405 110.168 281.226 110.667 281.226 80.3809V30.3044C281.226 30.3044 285.906 0 225.335 0ZM194.836 17.5106C200.339 17.5106 204.787 21.9584 204.787 27.4613C204.787 32.9643 200.339 37.412 194.836 37.412C189.333 37.412 184.886 32.9643 184.886 27.4613C184.886 21.9584 189.333 17.5106 194.836 17.5106Z" fill="#0077BB"/>
<path d="M226.981 227.126C284.941 227.126 281.322 201.991 281.322 201.991L281.257 175.951H225.947V168.133H303.226C303.226 168.133 340.315 172.339 340.315 113.856C340.315 55.3737 307.943 57.4476 307.943 57.4476H288.623V84.5858C288.623 84.5858 289.665 116.958 256.768 116.958H201.91C201.91 116.958 171.089 116.46 171.089 146.745V196.822C171.089 196.822 166.409 227.126 226.981 227.126ZM257.479 209.616C251.976 209.616 247.528 205.168 247.528 199.665C247.528 194.162 251.976 189.714 257.479 189.714C262.982 189.714 267.43 194.162 267.43 199.665C267.43 205.168 262.982 209.616 257.479 209.616Z" fill="#FEC106"/>
<path d="M17.4902 115.938L78.2227 140.547V157.773L6.32812 124.463V114.355L17.4902 115.938ZM78.2227 95.7227L17.5781 120.684L6.32812 121.914V111.719L78.2227 78.4961V95.7227Z" fill="#0077BB"/>
</svg>
